<?xml version="1.0" encoding="iso-8859-1"?>
<!-- Generator: Adobe Illustrator 23.0.2, SVG Export Plug-In . SVG Version: 6.00 Build 0)  -->
<svg version="1.1" id="Layer_1" xmlns="http://www.w3.org/2000/svg" xmlns:xlink="http://www.w3.org/1999/xlink" x="0px" y="0px"
	 viewBox="0 0 1000 1000" style="enable-background:new 0 0 1000 1000;" xml:space="preserve">
<rect id="XMLID_78_" style="fill:#E0F4FB;" width="1000" height="1000"/>
<line id="XMLID_59_" style="opacity:0.15;fill:none;stroke:#135677;stroke-width:4;stroke-linecap:round;stroke-linejoin:round;stroke-miterlimit:10;" x1="562.658" y1="315.667" x2="584.066" y2="339.571"/>
<g id="XMLID_187_" style="opacity:0.6;">
	<g id="XMLID_72_" style="opacity:0.15;">
		<g id="XMLID_70_">
			
				<rect id="XMLID_67_" x="108.78" y="328.994" style="fill:none;stroke:#02283F;stroke-width:4;stroke-linecap:round;stroke-linejoin:round;stroke-miterlimit:10;" width="152.53" height="371.597"/>
		</g>
		
			<line id="XMLID_73_" style="fill:none;stroke:#02283F;stroke-width:4;stroke-linecap:round;stroke-linejoin:round;stroke-miterlimit:10;" x1="142" y1="698" x2="142" y2="329"/>
		
			<line id="XMLID_74_" style="fill:none;stroke:#02283F;stroke-width:4;stroke-linecap:round;stroke-linejoin:round;stroke-miterlimit:10;" x1="230" y1="698" x2="230" y2="329"/>
		
			<line id="XMLID_75_" style="fill:none;stroke:#02283F;stroke-width:4;stroke-linecap:round;stroke-linejoin:round;stroke-miterlimit:10;" x1="186" y1="698" x2="186" y2="329"/>
		
			<line id="XMLID_76_" style="fill:none;stroke:#02283F;stroke-width:4;stroke-linecap:round;stroke-linejoin:round;stroke-miterlimit:10;" x1="109" y1="368" x2="262" y2="368"/>
		
			<line id="XMLID_77_" style="fill:none;stroke:#02283F;stroke-width:4;stroke-linecap:round;stroke-linejoin:round;stroke-miterlimit:10;" x1="109" y1="387" x2="262" y2="387"/>
		
			<line id="XMLID_80_" style="fill:none;stroke:#02283F;stroke-width:4;stroke-linecap:round;stroke-linejoin:round;stroke-miterlimit:10;" x1="109" y1="434" x2="262" y2="434"/>
		
			<line id="XMLID_79_" style="fill:none;stroke:#02283F;stroke-width:4;stroke-linecap:round;stroke-linejoin:round;stroke-miterlimit:10;" x1="109" y1="455" x2="262" y2="455"/>
		
			<line id="XMLID_82_" style="fill:none;stroke:#02283F;stroke-width:4;stroke-linecap:round;stroke-linejoin:round;stroke-miterlimit:10;" x1="109" y1="504" x2="262" y2="504"/>
		
			<line id="XMLID_81_" style="fill:none;stroke:#02283F;stroke-width:4;stroke-linecap:round;stroke-linejoin:round;stroke-miterlimit:10;" x1="109" y1="525" x2="262" y2="525"/>
		
			<line id="XMLID_85_" style="fill:none;stroke:#02283F;stroke-width:4;stroke-linecap:round;stroke-linejoin:round;stroke-miterlimit:10;" x1="109" y1="576" x2="262" y2="576"/>
		
			<line id="XMLID_83_" style="fill:none;stroke:#02283F;stroke-width:4;stroke-linecap:round;stroke-linejoin:round;stroke-miterlimit:10;" x1="109" y1="596" x2="262" y2="596"/>
		
			<line id="XMLID_90_" style="fill:none;stroke:#02283F;stroke-width:4;stroke-linecap:round;stroke-linejoin:round;stroke-miterlimit:10;" x1="109" y1="639" x2="262" y2="639"/>
		
			<line id="XMLID_89_" style="fill:none;stroke:#02283F;stroke-width:4;stroke-linecap:round;stroke-linejoin:round;stroke-miterlimit:10;" x1="109" y1="658" x2="262" y2="658"/>
		
			<rect id="XMLID_71_" x="142.798" y="296.39" style="fill:none;stroke:#02283F;stroke-width:4;stroke-linecap:round;stroke-linejoin:round;stroke-miterlimit:10;" width="87.741" height="33.39"/>
		
			<rect id="XMLID_92_" x="163.21" y="263" style="fill:none;stroke:#02283F;stroke-width:4;stroke-linecap:round;stroke-linejoin:round;stroke-miterlimit:10;" width="46.917" height="33.39"/>
	</g>
	<g id="XMLID_69_" style="opacity:0.15;">
		
			<polyline id="XMLID_20_" style="fill:none;stroke:#02283F;stroke-width:4;stroke-linecap:round;stroke-linejoin:round;stroke-miterlimit:10;" points="
			748.333,699.677 686.508,699.677 686.508,327.599 849.5,327.599 849.5,699.677 801.5,699.677 		"/>
		
			<rect id="XMLID_23_" x="707.554" y="361.729" style="fill:none;stroke:#02283F;stroke-width:4;stroke-linecap:round;stroke-linejoin:round;stroke-miterlimit:10;" width="19.702" height="34.604"/>
		
			<rect id="XMLID_26_" x="741.286" y="361.729" style="fill:none;stroke:#02283F;stroke-width:4;stroke-linecap:round;stroke-linejoin:round;stroke-miterlimit:10;" width="19.702" height="34.604"/>
		
			<rect id="XMLID_27_" x="775.019" y="361.729" style="fill:none;stroke:#02283F;stroke-width:4;stroke-linecap:round;stroke-linejoin:round;stroke-miterlimit:10;" width="19.702" height="34.604"/>
		
			<rect id="XMLID_28_" x="808.752" y="361.729" style="fill:none;stroke:#02283F;stroke-width:4;stroke-linecap:round;stroke-linejoin:round;stroke-miterlimit:10;" width="19.702" height="34.604"/>
		
			<rect id="XMLID_32_" x="707.554" y="413.729" style="fill:none;stroke:#02283F;stroke-width:4;stroke-linecap:round;stroke-linejoin:round;stroke-miterlimit:10;" width="19.702" height="34.604"/>
		
			<rect id="XMLID_31_" x="741.286" y="413.729" style="fill:none;stroke:#02283F;stroke-width:4;stroke-linecap:round;stroke-linejoin:round;stroke-miterlimit:10;" width="19.702" height="34.604"/>
		
			<rect id="XMLID_30_" x="775.019" y="413.729" style="fill:none;stroke:#02283F;stroke-width:4;stroke-linecap:round;stroke-linejoin:round;stroke-miterlimit:10;" width="19.702" height="34.604"/>
		
			<rect id="XMLID_29_" x="808.752" y="413.729" style="fill:none;stroke:#02283F;stroke-width:4;stroke-linecap:round;stroke-linejoin:round;stroke-miterlimit:10;" width="19.702" height="34.604"/>
		
			<rect id="XMLID_38_" x="707.554" y="512.698" style="fill:none;stroke:#02283F;stroke-width:4;stroke-linecap:round;stroke-linejoin:round;stroke-miterlimit:10;" width="19.702" height="29.635"/>
		
			<rect id="XMLID_37_" x="741.286" y="512.698" style="fill:none;stroke:#02283F;stroke-width:4;stroke-linecap:round;stroke-linejoin:round;stroke-miterlimit:10;" width="19.702" height="29.635"/>
		
			<rect id="XMLID_36_" x="775.019" y="512.698" style="fill:none;stroke:#02283F;stroke-width:4;stroke-linecap:round;stroke-linejoin:round;stroke-miterlimit:10;" width="19.702" height="29.635"/>
		
			<rect id="XMLID_35_" x="808.752" y="512.698" style="fill:none;stroke:#02283F;stroke-width:4;stroke-linecap:round;stroke-linejoin:round;stroke-miterlimit:10;" width="19.702" height="29.635"/>
		
			<rect id="XMLID_45_" x="707.554" y="618.127" style="fill:none;stroke:#02283F;stroke-width:4;stroke-linecap:round;stroke-linejoin:round;stroke-miterlimit:10;" width="19.702" height="29.635"/>
		
			<rect id="XMLID_44_" x="741.286" y="618.127" style="fill:none;stroke:#02283F;stroke-width:4;stroke-linecap:round;stroke-linejoin:round;stroke-miterlimit:10;" width="19.702" height="29.635"/>
		
			<rect id="XMLID_43_" x="775.019" y="618.127" style="fill:none;stroke:#02283F;stroke-width:4;stroke-linecap:round;stroke-linejoin:round;stroke-miterlimit:10;" width="19.702" height="29.635"/>
		
			<rect id="XMLID_42_" x="808.752" y="618.127" style="fill:none;stroke:#02283F;stroke-width:4;stroke-linecap:round;stroke-linejoin:round;stroke-miterlimit:10;" width="19.702" height="29.635"/>
		
			<line id="XMLID_33_" style="fill:none;stroke:#02283F;stroke-width:4;stroke-linecap:round;stroke-linejoin:round;stroke-miterlimit:10;" x1="707" y1="478" x2="828" y2="478"/>
		
			<line id="XMLID_34_" style="fill:none;stroke:#02283F;stroke-width:4;stroke-linecap:round;stroke-linejoin:round;stroke-miterlimit:10;" x1="707" y1="494" x2="828" y2="494"/>
		
			<line id="XMLID_39_" style="fill:none;stroke:#02283F;stroke-width:4;stroke-linecap:round;stroke-linejoin:round;stroke-miterlimit:10;" x1="707" y1="562" x2="828" y2="562"/>
		
			<line id="XMLID_40_" style="fill:none;stroke:#02283F;stroke-width:4;stroke-linecap:round;stroke-linejoin:round;stroke-miterlimit:10;" x1="707" y1="579" x2="828" y2="579"/>
		
			<line id="XMLID_41_" style="fill:none;stroke:#02283F;stroke-width:4;stroke-linecap:round;stroke-linejoin:round;stroke-miterlimit:10;" x1="707" y1="596" x2="828" y2="596"/>
		
			<rect id="XMLID_24_" x="717.405" y="292" style="fill:none;stroke:#02283F;stroke-width:4;stroke-linecap:round;stroke-linejoin:round;stroke-miterlimit:10;" width="110.602" height="35.599"/>
		
			<rect id="XMLID_47_" x="741.286" y="256.401" style="fill:none;stroke:#02283F;stroke-width:4;stroke-linecap:round;stroke-linejoin:round;stroke-miterlimit:10;" width="62.838" height="35.599"/>
		
			<line id="XMLID_48_" style="fill:none;stroke:#02283F;stroke-width:4;stroke-linecap:round;stroke-linejoin:round;stroke-miterlimit:10;" x1="771" y1="256" x2="771" y2="200"/>
	</g>
	<g id="XMLID_53_" style="opacity:0.15;">
		
			<polygon id="XMLID_52_" style="fill:none;stroke:#02283F;stroke-width:4;stroke-linecap:round;stroke-linejoin:round;stroke-miterlimit:10;" points="
			604.744,700 520.573,700 520.573,339.099 562.658,293.2 604.744,339.099 		"/>
		
			<path id="XMLID_46_" style="fill:none;stroke:#02283F;stroke-width:4;stroke-linecap:round;stroke-linejoin:round;stroke-miterlimit:10;" d="
			M675.208,700h-70.464V409.144c0-40.56,26.695-47.197,70.464-68.345L675.208,700z"/>
		<g id="XMLID_49_">
			<g id="XMLID_315_">
				<g id="XMLID_323_">
					
						<line id="XMLID_325_" style="fill:none;stroke:#02283F;stroke-width:4;stroke-linejoin:round;stroke-miterlimit:10;" x1="630" y1="620" x2="630" y2="638"/>
					
						<line id="XMLID_324_" style="fill:none;stroke:#02283F;stroke-width:4;stroke-linejoin:round;stroke-miterlimit:10;" x1="649" y1="620" x2="649" y2="638"/>
				</g>
			</g>
			<g id="XMLID_300_">
				<g id="XMLID_305_">
					
						<line id="XMLID_310_" style="fill:none;stroke:#02283F;stroke-width:4;stroke-linejoin:round;stroke-miterlimit:10;" x1="630" y1="582" x2="630" y2="600"/>
					
						<line id="XMLID_309_" style="fill:none;stroke:#02283F;stroke-width:4;stroke-linejoin:round;stroke-miterlimit:10;" x1="649" y1="582" x2="649" y2="600"/>
				</g>
			</g>
			<g id="XMLID_283_">
				<g id="XMLID_290_">
					
						<line id="XMLID_293_" style="fill:none;stroke:#02283F;stroke-width:4;stroke-linejoin:round;stroke-miterlimit:10;" x1="630" y1="544" x2="630" y2="562"/>
					
						<line id="XMLID_291_" style="fill:none;stroke:#02283F;stroke-width:4;stroke-linejoin:round;stroke-miterlimit:10;" x1="649" y1="544" x2="649" y2="562"/>
				</g>
			</g>
			<g id="XMLID_269_">
				<g id="XMLID_276_">
					
						<line id="XMLID_278_" style="fill:none;stroke:#02283F;stroke-width:4;stroke-linejoin:round;stroke-miterlimit:10;" x1="630" y1="506" x2="630" y2="524"/>
					
						<line id="XMLID_277_" style="fill:none;stroke:#02283F;stroke-width:4;stroke-linejoin:round;stroke-miterlimit:10;" x1="649" y1="506" x2="649" y2="524"/>
				</g>
			</g>
			<g id="XMLID_255_">
				<g id="XMLID_262_">
					
						<line id="XMLID_264_" style="fill:none;stroke:#02283F;stroke-width:4;stroke-linejoin:round;stroke-miterlimit:10;" x1="630" y1="468" x2="630" y2="486"/>
					
						<line id="XMLID_263_" style="fill:none;stroke:#02283F;stroke-width:4;stroke-linejoin:round;stroke-miterlimit:10;" x1="649" y1="468" x2="649" y2="486"/>
				</g>
			</g>
			<g id="XMLID_244_">
				<g id="XMLID_248_">
					
						<line id="XMLID_250_" style="fill:none;stroke:#02283F;stroke-width:4;stroke-linejoin:round;stroke-miterlimit:10;" x1="630" y1="430" x2="630" y2="448"/>
					
						<line id="XMLID_249_" style="fill:none;stroke:#02283F;stroke-width:4;stroke-linejoin:round;stroke-miterlimit:10;" x1="649" y1="430" x2="649" y2="448"/>
				</g>
			</g>
			<g id="XMLID_234_">
				<g id="XMLID_238_">
					
						<line id="XMLID_240_" style="fill:none;stroke:#02283F;stroke-width:4;stroke-linejoin:round;stroke-miterlimit:10;" x1="630" y1="392" x2="630" y2="410"/>
					
						<line id="XMLID_239_" style="fill:none;stroke:#02283F;stroke-width:4;stroke-linejoin:round;stroke-miterlimit:10;" x1="649" y1="392" x2="649" y2="410"/>
				</g>
			</g>
		</g>
		
			<path id="XMLID_88_" style="fill:none;stroke:#02283F;stroke-width:4;stroke-linecap:round;stroke-linejoin:round;stroke-miterlimit:10;" d="
			M449.812,700h70.464V409.144c0-40.56-26.695-47.197-70.464-68.345L449.812,700z"/>
		<g id="XMLID_54_">
			<g id="XMLID_322_">
				<g id="XMLID_326_">
					
						<line id="XMLID_328_" style="fill:none;stroke:#02283F;stroke-width:4;stroke-linejoin:round;stroke-miterlimit:10;" x1="492" y1="620" x2="492" y2="638"/>
					
						<line id="XMLID_327_" style="fill:none;stroke:#02283F;stroke-width:4;stroke-linejoin:round;stroke-miterlimit:10;" x1="474" y1="620" x2="474" y2="638"/>
				</g>
			</g>
			<g id="XMLID_312_">
				<g id="XMLID_316_">
					
						<line id="XMLID_318_" style="fill:none;stroke:#02283F;stroke-width:4;stroke-linejoin:round;stroke-miterlimit:10;" x1="492" y1="582" x2="492" y2="600"/>
					
						<line id="XMLID_317_" style="fill:none;stroke:#02283F;stroke-width:4;stroke-linejoin:round;stroke-miterlimit:10;" x1="474" y1="582" x2="474" y2="600"/>
				</g>
			</g>
			<g id="XMLID_302_">
				<g id="XMLID_306_">
					
						<line id="XMLID_308_" style="fill:none;stroke:#02283F;stroke-width:4;stroke-linejoin:round;stroke-miterlimit:10;" x1="492" y1="544" x2="492" y2="562"/>
					
						<line id="XMLID_307_" style="fill:none;stroke:#02283F;stroke-width:4;stroke-linejoin:round;stroke-miterlimit:10;" x1="474" y1="544" x2="474" y2="562"/>
				</g>
			</g>
			<g id="XMLID_292_">
				<g id="XMLID_296_">
					
						<line id="XMLID_298_" style="fill:none;stroke:#02283F;stroke-width:4;stroke-linejoin:round;stroke-miterlimit:10;" x1="492" y1="506" x2="492" y2="524"/>
					
						<line id="XMLID_297_" style="fill:none;stroke:#02283F;stroke-width:4;stroke-linejoin:round;stroke-miterlimit:10;" x1="474" y1="506" x2="474" y2="524"/>
				</g>
			</g>
			<g id="XMLID_279_">
				<g id="XMLID_286_">
					
						<line id="XMLID_288_" style="fill:none;stroke:#02283F;stroke-width:4;stroke-linejoin:round;stroke-miterlimit:10;" x1="492" y1="468" x2="492" y2="486"/>
					
						<line id="XMLID_287_" style="fill:none;stroke:#02283F;stroke-width:4;stroke-linejoin:round;stroke-miterlimit:10;" x1="474" y1="468" x2="474" y2="486"/>
				</g>
			</g>
			<g id="XMLID_265_">
				<g id="XMLID_272_">
					
						<line id="XMLID_274_" style="fill:none;stroke:#02283F;stroke-width:4;stroke-linejoin:round;stroke-miterlimit:10;" x1="492" y1="430" x2="492" y2="448"/>
					
						<line id="XMLID_273_" style="fill:none;stroke:#02283F;stroke-width:4;stroke-linejoin:round;stroke-miterlimit:10;" x1="474" y1="430" x2="474" y2="448"/>
				</g>
			</g>
			<g id="XMLID_251_">
				<g id="XMLID_258_">
					
						<line id="XMLID_260_" style="fill:none;stroke:#02283F;stroke-width:4;stroke-linejoin:round;stroke-miterlimit:10;" x1="492" y1="392" x2="492" y2="410"/>
					
						<line id="XMLID_259_" style="fill:none;stroke:#02283F;stroke-width:4;stroke-linejoin:round;stroke-miterlimit:10;" x1="474" y1="392" x2="474" y2="410"/>
				</g>
			</g>
		</g>
		
			<line id="XMLID_55_" style="fill:none;stroke:#02283F;stroke-width:4;stroke-linecap:round;stroke-linejoin:round;stroke-miterlimit:10;" x1="546" y1="352" x2="546" y2="611"/>
		
			<line id="XMLID_56_" style="fill:none;stroke:#02283F;stroke-width:4;stroke-linecap:round;stroke-linejoin:round;stroke-miterlimit:10;" x1="582" y1="352" x2="582" y2="611"/>
		<g id="XMLID_58_">
			<g id="XMLID_181_">
				
					<line id="XMLID_182_" style="fill:none;stroke:#02283F;stroke-width:4;stroke-linecap:round;stroke-linejoin:round;stroke-miterlimit:10;" x1="534.605" y1="604" x2="590.13" y2="604"/>
			</g>
			<g id="XMLID_178_">
				
					<line id="XMLID_179_" style="fill:none;stroke:#02283F;stroke-width:4;stroke-linecap:round;stroke-linejoin:round;stroke-miterlimit:10;" x1="534.605" y1="566" x2="590.13" y2="566"/>
			</g>
			<g id="XMLID_175_">
				
					<line id="XMLID_176_" style="fill:none;stroke:#02283F;stroke-width:4;stroke-linecap:round;stroke-linejoin:round;stroke-miterlimit:10;" x1="534.605" y1="528" x2="590.13" y2="528"/>
			</g>
			<g id="XMLID_172_">
				
					<line id="XMLID_173_" style="fill:none;stroke:#02283F;stroke-width:4;stroke-linecap:round;stroke-linejoin:round;stroke-miterlimit:10;" x1="534.605" y1="490" x2="590.13" y2="490"/>
			</g>
			<g id="XMLID_169_">
				
					<line id="XMLID_170_" style="fill:none;stroke:#02283F;stroke-width:4;stroke-linecap:round;stroke-linejoin:round;stroke-miterlimit:10;" x1="534.605" y1="452" x2="590.13" y2="452"/>
			</g>
			<g id="XMLID_166_">
				
					<line id="XMLID_167_" style="fill:none;stroke:#02283F;stroke-width:4;stroke-linecap:round;stroke-linejoin:round;stroke-miterlimit:10;" x1="534.605" y1="414" x2="590.13" y2="414"/>
			</g>
			<g id="XMLID_163_">
				
					<line id="XMLID_164_" style="fill:none;stroke:#02283F;stroke-width:4;stroke-linecap:round;stroke-linejoin:round;stroke-miterlimit:10;" x1="534.605" y1="376" x2="590.13" y2="376"/>
			</g>
		</g>
	</g>
	<g id="XMLID_61_" style="opacity:0.15;">
		
			<rect id="XMLID_57_" x="286.833" y="293.2" style="fill:none;stroke:#02283F;stroke-width:4;stroke-linecap:round;stroke-linejoin:round;stroke-miterlimit:10;" width="147.105" height="406.476"/>
		
			<rect id="XMLID_60_" x="306.403" y="323.431" style="fill:none;stroke:#02283F;stroke-width:4;stroke-linecap:round;stroke-linejoin:round;stroke-miterlimit:10;" width="17.27" height="288.609"/>
		
			<rect id="XMLID_63_" x="337.049" y="323.431" style="fill:none;stroke:#02283F;stroke-width:4;stroke-linecap:round;stroke-linejoin:round;stroke-miterlimit:10;" width="17.27" height="288.609"/>
		
			<rect id="XMLID_64_" x="367.696" y="323.431" style="fill:none;stroke:#02283F;stroke-width:4;stroke-linecap:round;stroke-linejoin:round;stroke-miterlimit:10;" width="17.27" height="288.609"/>
		
			<rect id="XMLID_65_" x="398.342" y="323.431" style="fill:none;stroke:#02283F;stroke-width:4;stroke-linecap:round;stroke-linejoin:round;stroke-miterlimit:10;" width="17.27" height="288.609"/>
		
			<rect id="XMLID_62_" x="367.696" y="252" style="fill:none;stroke:#02283F;stroke-width:4;stroke-linecap:round;stroke-linejoin:round;stroke-miterlimit:10;" width="47.916" height="41.2"/>
		
			<line id="XMLID_68_" style="fill:none;stroke:#02283F;stroke-width:4;stroke-linecap:round;stroke-linejoin:round;stroke-miterlimit:10;" x1="390" y1="252" x2="390" y2="216"/>
		
			<rect id="XMLID_66_" x="304.456" y="266.333" style="fill:none;stroke:#02283F;stroke-width:4;stroke-linecap:round;stroke-linejoin:round;stroke-miterlimit:10;" width="45.365" height="26.867"/>
	</g>
</g>
<path id="XMLID_25_" style="fill:#FFBF73;" d="M209.846,388.474c-8.652-7.041-21.04-7.041-29.693,0
	c-30.037,24.443-66.142,72.268-61.796,127.933c1.082,13.458,4.392,26.441,9.148,38.674c0.341,0.876,0.734,1.739,1.178,2.569
	c31.572,59.089,101.06,59.089,132.632,0c0.443-0.83,0.837-1.692,1.178-2.568c4.757-12.233,8.066-25.216,9.148-38.674
	C275.988,460.741,239.883,412.917,209.846,388.474z"/>
<path id="XMLID_180_" style="opacity:0.43;fill:#FFBF73;" d="M234.705,566.74c-34.957,0-63.295-44.326-63.295-99.005
	c0-35.274,11.796-66.235,29.552-83.771c-7.077-1.853-14.833-0.352-20.808,4.51c-30.037,24.443-66.142,72.268-61.796,127.933
	c1.082,13.458,4.392,26.441,9.148,38.674c0.341,0.876,0.734,1.739,1.178,2.569c31.572,59.089,101.06,59.089,132.632,0
	c0.018-0.034,0.033-0.069,0.051-0.103C253.263,563.442,244.231,566.74,234.705,566.74z"/>
<line id="XMLID_22_" style="fill:none;stroke:#135677;stroke-width:8;stroke-linecap:round;stroke-linejoin:round;stroke-miterlimit:10;" x1="195" y1="698" x2="195" y2="485"/>
<path id="XMLID_115_" style="fill:#FFBF73;" d="M98,700.929C98,669.488,123.488,644,154.929,644s56.929,25.488,56.929,56.929"/>
<path id="XMLID_12_" style="opacity:0.43;fill:#FFBF73;" d="M170.464,646.164c-4.94-1.399-10.147-2.164-15.536-2.164
	C123.488,644,98,669.488,98,700.929h31.071C129.071,674.876,146.578,652.927,170.464,646.164z"/>
<g>
	<path id="XMLID_91_" style="fill:#4DCBAB;" d="M285.584,628.205c-1.878-16.234,0.791-52.173,8.658-76.093
		c5.18-15.749,10.027-37.15,31.386-49.142c17.626-9.895,131.619-17.98,195.448-11.508c35.575,3.607,65.084,38.523,83.463,67.486
		c60.607,11.132,62.124,11.14,76.348,15.469c14.224,4.329,28.109,15.16,28.109,31.548c0,10.514,0,39.694,0,39.694H287.284
		C286.666,635.659,286.202,638.1,285.584,628.205z"/>
	<path id="XMLID_189_" style="opacity:0.49;fill:#4DCBAB;" d="M681.887,571.417c-14.224-4.329-15.741-4.337-76.348-15.469
		c-18.379-28.963-47.888-63.879-83.463-67.486c-63.829-6.471-177.823,1.613-195.448,11.508c-4.791,2.689-8.745,5.855-12.064,9.321
		c0.035-0.02,0.068-0.041,0.103-0.061c17.626-9.895,131.619-17.98,195.448-11.508c33.511,3.397,63.963,34.577,82.746,62.392
		c2.223,3.292,5.706,5.529,9.613,6.248c54.271,9.984,53.738,10.141,67.453,14.315c14.224,4.329,28.109,15.16,28.109,31.548
		c0,6.696,0,20.955,0,30.434h11.961c0,0,0-29.18,0-39.694C709.996,586.576,696.111,575.746,681.887,571.417z"/>
	
		<line id="XMLID_174_" style="opacity:0.21;fill:none;stroke:#72757C;stroke-width:3;stroke-linecap:round;stroke-miterlimit:10;" x1="514.996" y1="553.659" x2="514.996" y2="642.842"/>
	
		<line id="XMLID_177_" style="opacity:0.21;fill:none;stroke:#72757C;stroke-width:3;stroke-linecap:round;stroke-miterlimit:10;" x1="374.979" y1="553.673" x2="372.703" y2="642.827"/>
	<path id="XMLID_183_" style="opacity:0.2;fill:#72757C;" d="M324.759,552.112c5.18-15.749,10.027-37.15,31.386-49.142
		c12.087-6.786,69.494-12.719,124.963-13.692c-63.006-1.211-141.14,5.641-155.48,13.692c-21.359,11.991-26.206,33.392-31.386,49.142
		c-7.867,23.92-10.536,59.859-8.658,76.093c0.618,9.895,1.082,7.454,1.701,17.454h30.517c-0.618-10-1.082-7.559-1.701-17.454
		C314.222,611.971,316.891,576.032,324.759,552.112z"/>
	
		<path id="XMLID_8_" style="fill:none;stroke:#135677;stroke-width:8;stroke-linecap:round;stroke-linejoin:round;stroke-miterlimit:10;" d="
		M285.584,628.205c-1.878-16.234,0.791-52.173,8.658-76.093c5.18-15.749,10.027-37.15,31.386-49.142
		c17.626-9.895,131.619-17.98,195.448-11.508c33.352,3.381,61.372,34.281,79.888,61.995c2.37,3.547,6.109,5.957,10.305,6.726
		c54.013,9.904,55.941,10.071,69.618,14.234c14.224,4.329,28.109,15.16,28.109,31.548c0,10.514,0,39.694,0,39.694H287.284
		C286.666,635.659,286.202,638.1,285.584,628.205z"/>
	<path id="XMLID_108_" style="fill:#FFC88D;" d="M515.109,559.282c-7.4-23.87-20.236-44.709-29.523-57.791
		c12.859,0.518,24.313,1.366,34.135,2.529c29.583,3.507,54.049,31.462,70.326,56.519L515.109,559.282z"/>
	<path id="XMLID_186_" style="opacity:0.2;fill:#FFBF73;" d="M530.163,539.486c-5.497-9.954,2.412-21.995,13.728-20.875
		c2.097,0.208,4.13,0.428,6.098,0.661c1.699,0.201,3.38,0.493,5.045,0.85c-10.645-8.472-22.497-14.583-35.312-16.102
		c-9.822-1.163-21.276-2.01-34.135-2.529c9.288,13.082,22.123,33.921,29.523,57.791l24.854,0.417
		C536.96,552.49,533.594,545.699,530.163,539.486z"/>
	
		<path id="XMLID_21_" style="fill:none;stroke:#135677;stroke-width:8;stroke-linecap:round;stroke-linejoin:round;stroke-miterlimit:10;" d="
		M515.109,559.282c-7.4-23.87-20.236-44.709-29.523-57.791c12.859,0.518,24.313,1.366,34.135,2.529
		c29.583,3.507,54.049,31.462,70.326,56.519L515.109,559.282z"/>
	<path id="XMLID_100_" style="fill:#FFC88D;" d="M385.013,558.287l4.257-53.207c23.33-1.669,48.973-2.503,72.605-2.354
		c2.484,0.016,4.953,0.042,7.404,0.081c9.025,11.237,23.816,31.941,32.48,56.218L385.013,558.287z"/>
	<path id="XMLID_185_" style="opacity:0.2;fill:#FFBF73;" d="M403.058,532.008c0.72-9.204,9.115-16.516,19.627-17.058
		c17.31-0.892,35.234-1.315,52.102-1.208c0.925,0.006,1.837,0.021,2.757,0.03c-3.014-4.252-5.849-7.957-8.266-10.966
		c-2.451-0.038-4.919-0.065-7.404-0.081c-23.632-0.149-49.275,0.684-72.605,2.354l-4.257,53.207l15.981,0.101L403.058,532.008z"/>
	
		<path id="XMLID_18_" style="fill:none;stroke:#135677;stroke-width:8;stroke-linecap:round;stroke-linejoin:round;stroke-miterlimit:10;" d="
		M385.013,558.287l4.257-53.207c23.33-1.669,48.973-2.503,72.605-2.354c2.484,0.016,4.953,0.042,7.404,0.081
		c9.025,11.237,23.816,31.941,32.48,56.218L385.013,558.287z"/>
	<path id="XMLID_93_" style="fill:#FFFFFF;" d="M356.771,658.842h-73.442c-9.941,0-18-8.059-18-18v0c0-9.941,8.059-18,18-18h73.442
		V658.842z"/>
	<path id="XMLID_190_" style="opacity:0.2;fill:#72757C;" d="M286.829,645.559c0-9.941,8.059-18,18-18h51.942v-4.717h-73.442
		c-9.941,0-18,8.059-18,18v0c0,9.941,8.059,18,18,18h9.383C289.106,655.55,286.829,650.826,286.829,645.559z"/>
	
		<path id="XMLID_7_" style="fill:none;stroke:#135677;stroke-width:8;stroke-linecap:round;stroke-linejoin:round;stroke-miterlimit:10;" d="
		M356.771,658.842h-73.442c-9.941,0-18-8.059-18-18v0c0-9.941,8.059-18,18-18h73.442V658.842z"/>
	<path id="XMLID_99_" style="fill:#FFFFFF;" d="M711.996,658.842h-60.141v-30h60.141c8.284,0,15,6.716,15,15v0
		C726.996,652.126,720.28,658.842,711.996,658.842z"/>
	<path id="XMLID_192_" style="opacity:0.2;fill:#72757C;" d="M655.817,640.421h60.141c4.336,0,8.231,1.851,10.969,4.792
		c0.041-0.452,0.069-0.909,0.069-1.372v0c0-8.284-6.716-15-15-15h-60.141v30h3.961V640.421z"/>
	
		<path id="XMLID_9_" style="fill:none;stroke:#135677;stroke-width:8;stroke-linecap:round;stroke-linejoin:round;stroke-miterlimit:10;" d="
		M711.996,658.842h-60.141v-30h60.141c8.284,0,15,6.716,15,15v0C726.996,652.126,720.28,658.842,711.996,658.842z"/>
	<rect id="XMLID_96_" x="389.945" y="642.842" style="fill:#FFFFFF;" width="185.532" height="16"/>
	<rect id="XMLID_160_" x="389.945" y="642.842" style="opacity:0.2;fill:#72757C;" width="185.532" height="8"/>
	
		<rect id="XMLID_10_" x="389.945" y="642.842" style="fill:none;stroke:#135677;stroke-width:8;stroke-linecap:round;stroke-linejoin:round;stroke-miterlimit:10;" width="185.532" height="16"/>
	<circle id="XMLID_97_" style="fill:#82818C;" cx="620.315" cy="655.131" r="44.528"/>
	
		<circle id="XMLID_17_" style="fill:none;stroke:#135677;stroke-width:8;stroke-linecap:round;stroke-linejoin:round;stroke-miterlimit:10;" cx="620.315" cy="655.131" r="44.528"/>
	<circle id="XMLID_98_" style="fill:#FFFFFF;" cx="620.315" cy="655.131" r="24.119"/>
	
		<circle id="XMLID_16_" style="fill:none;stroke:#135677;stroke-width:8;stroke-linecap:round;stroke-linejoin:round;stroke-miterlimit:10;" cx="620.315" cy="655.131" r="24.119"/>
	
		<circle id="XMLID_15_" style="fill:none;stroke:#135677;stroke-width:8;stroke-linecap:round;stroke-linejoin:round;stroke-miterlimit:10;" cx="620.315" cy="655.131" r="7.421"/>
	
		<path id="XMLID_19_" style="fill:none;stroke:#135677;stroke-width:8;stroke-linecap:round;stroke-linejoin:round;stroke-miterlimit:10;" d="
		M534.519,645.559"/>
	<circle id="XMLID_94_" style="fill:#82818C;" cx="362.425" cy="655.131" r="44.528"/>
	
		<circle id="XMLID_11_" style="fill:none;stroke:#135677;stroke-width:8;stroke-linecap:round;stroke-linejoin:round;stroke-miterlimit:10;" cx="362.425" cy="655.131" r="44.528"/>
	<circle id="XMLID_95_" style="fill:#FFFFFF;" cx="362.425" cy="655.131" r="24.119"/>
	
		<circle id="XMLID_13_" style="fill:none;stroke:#135677;stroke-width:8;stroke-linecap:round;stroke-linejoin:round;stroke-miterlimit:10;" cx="362.425" cy="655.131" r="24.119"/>
	
		<circle id="XMLID_14_" style="fill:none;stroke:#135677;stroke-width:8;stroke-linecap:round;stroke-linejoin:round;stroke-miterlimit:10;" cx="362.425" cy="655.131" r="7.421"/>
	<path id="XMLID_105_" style="fill:#FFC88D;" d="M376.841,504.098c-26.479,2.833-40.11,6.256-44.061,8.653
		c-15.747,9.559-20.477,25.764-24.65,40.062c-0.461,1.579-0.911,3.12-1.363,4.607c-0.124,0.406-0.247,0.819-0.369,1.239h66.934
		L376.841,504.098z"/>
	<path id="XMLID_184_" style="opacity:0.2;fill:#FFBF73;" d="M323.282,558.094c4.173-14.298,8.903-30.503,24.65-40.062
		c3.083-1.871,12.063-4.367,28.445-6.719l0.464-7.215c-26.479,2.833-40.11,6.256-44.061,8.653
		c-15.747,9.559-20.477,25.764-24.65,40.062c-0.461,1.579-0.911,3.12-1.363,4.607c-0.124,0.406-0.247,0.819-0.369,1.239h16.717
		C323.172,558.469,323.226,558.285,323.282,558.094z"/>
	
		<path id="XMLID_109_" style="fill:none;stroke:#135677;stroke-width:8;stroke-linecap:round;stroke-linejoin:round;stroke-miterlimit:10;" d="
		M376.841,504.098c-26.479,2.833-40.11,6.256-44.061,8.653c-15.747,9.559-20.477,25.764-24.65,40.062
		c-0.461,1.579-0.911,3.12-1.363,4.607c-0.124,0.406-0.247,0.819-0.369,1.239h66.934L376.841,504.098z"/>
	<g id="XMLID_111_">
		<path style="fill:#FFFFFF;" d="M717.128,597.825c1.115,6.827-5.249,12.427-15.225,13.305c-9.497,0.93-20.434-3.339-22.181-10.14
			c-1.073-6.83,10.281-12.894,19.874-13.762C709.114,586.289,715.772,591.008,717.128,597.825z"/>
	</g>
	<g id="XMLID_110_">
		<path style="fill:none;stroke:#135677;stroke-width:8;stroke-linecap:round;stroke-linejoin:round;stroke-miterlimit:10;" d="
			M717.128,597.825c1.115,6.827-5.249,12.427-15.225,13.305c-9.497,0.93-20.434-3.339-22.181-10.14
			c-1.073-6.83,10.281-12.894,19.874-13.762C709.114,586.289,715.772,591.008,717.128,597.825z"/>
	</g>
	
		<line id="XMLID_113_" style="fill:none;stroke:#135677;stroke-width:8;stroke-linecap:round;stroke-linejoin:round;stroke-miterlimit:10;" x1="544.019" y1="576.659" x2="525.019" y2="576.659"/>
	
		<line id="XMLID_114_" style="fill:none;stroke:#135677;stroke-width:8;stroke-linecap:round;stroke-linejoin:round;stroke-miterlimit:10;" x1="406.996" y1="576.659" x2="386.996" y2="576.659"/>
</g>
<path id="XMLID_120_" style="fill:none;stroke:#135677;stroke-width:6;stroke-linecap:round;stroke-linejoin:round;stroke-miterlimit:10;" d="
	M215.844,455.48c-3.556,4.117-4.546,9.593-3.129,14.522c4.601,0.183,9.206-1.624,12.413-5.338c3.556-4.117,4.546-9.593,3.129-14.522
	C223.655,449.96,219.051,451.767,215.844,455.48z"/>
<path id="XMLID_137_" style="fill:none;stroke:#135677;stroke-width:6;stroke-linecap:round;stroke-linejoin:round;stroke-miterlimit:10;" d="
	M188.002,425.076c-0.185,5.29,2.405,10.045,6.485,12.918c3.6-2.668,5.988-6.846,6.155-11.618c0.185-5.29-2.405-10.045-6.485-12.918
	C190.557,416.126,188.169,420.305,188.002,425.076z"/>
<path id="XMLID_119_" style="fill:none;stroke:#135677;stroke-width:6;stroke-linecap:round;stroke-linejoin:round;stroke-miterlimit:10;" d="
	M158.074,471.31c1.389,5.26,5.35,9.169,10.217,10.784c2.749-3.694,3.858-8.514,2.605-13.258c-1.389-5.26-5.35-9.169-10.217-10.784
	C157.93,461.745,156.821,466.566,158.074,471.31z"/>
<path id="XMLID_146_" style="fill:none;stroke:#135677;stroke-width:6;stroke-linecap:round;stroke-linejoin:round;stroke-miterlimit:10;" d="
	M92.214,589.253c-1.159,5.316,0.585,10.599,4.183,14.254c4.13-2.036,7.313-5.822,8.359-10.616c1.16-5.316-0.585-10.599-4.183-14.254
	C96.443,580.673,93.26,584.459,92.214,589.253z"/>
<path id="XMLID_116_" style="fill:none;stroke:#135677;stroke-width:6;stroke-linecap:round;stroke-linejoin:round;stroke-miterlimit:10;" d="
	M225.26,546.724c-3.595,3.248-5.071,7.978-4.361,12.489c4.046,0.667,8.313-0.424,11.556-3.353c3.595-3.248,5.071-7.978,4.361-12.489
	C232.769,542.704,228.502,543.795,225.26,546.724z"/>
<path id="XMLID_128_" style="fill:none;stroke:#135677;stroke-width:8;stroke-linecap:round;stroke-linejoin:round;stroke-miterlimit:10;" d="
	M164.308,538c0,0,9.165,24.667,30.692,26.333"/>
<path id="XMLID_134_" style="fill:none;stroke:#135677;stroke-width:8;stroke-linecap:round;stroke-linejoin:round;stroke-miterlimit:10;" d="
	M194.853,538.608c0,0,19.466-8.405,21.118-28.89"/>
<path id="XMLID_145_" style="fill:#FFBF73;" d="M143.795,697c-5.145-14.175-18.729-24.302-34.682-24.302S79.577,682.825,74.432,697
	H143.795z"/>
<path id="XMLID_102_" style="fill:#FFAA58;" d="M121.673,674.895c-3.92-1.42-8.149-2.197-12.559-2.197
	c-15.952,0-29.537,10.127-34.682,24.302h25.119C103.273,686.744,111.415,678.611,121.673,674.895z"/>
<line id="XMLID_3_" style="fill:none;stroke:#135677;stroke-width:8;stroke-linecap:round;stroke-linejoin:round;stroke-miterlimit:10;" x1="267.5" y1="699.677" x2="68.138" y2="699.677"/>
<line id="XMLID_5_" style="fill:none;stroke:#135677;stroke-width:8;stroke-linecap:round;stroke-linejoin:round;stroke-miterlimit:10;" x1="748.333" y1="699.677" x2="283" y2="699.677"/>
<line id="XMLID_2_" style="fill:none;stroke:#135677;stroke-width:8;stroke-linecap:round;stroke-linejoin:round;stroke-miterlimit:10;" x1="782.75" y1="699.677" x2="769" y2="699.677"/>
<line id="XMLID_84_" style="fill:none;stroke:#135677;stroke-width:8;stroke-linecap:round;stroke-linejoin:round;stroke-miterlimit:10;" x1="931.862" y1="699.677" x2="799.75" y2="699.677"/>
<line id="XMLID_143_" style="fill:none;stroke:#135677;stroke-width:8;stroke-linecap:round;stroke-linejoin:round;stroke-miterlimit:10;" x1="155" y1="666" x2="155" y2="697"/>
<line id="XMLID_144_" style="fill:none;stroke:#135677;stroke-width:8;stroke-linecap:round;stroke-linejoin:round;stroke-miterlimit:10;" x1="174.672" y1="678.005" x2="155" y2="697"/>
<line id="XMLID_147_" style="fill:none;stroke:#135677;stroke-width:6;stroke-linecap:round;stroke-linejoin:round;stroke-miterlimit:10;" x1="887" y1="442" x2="887" y2="697"/>
<line id="XMLID_148_" style="fill:none;stroke:#135677;stroke-width:6;stroke-linecap:round;stroke-linejoin:round;stroke-miterlimit:10;" x1="841.745" y1="397.058" x2="887" y2="442.312"/>
<rect id="XMLID_122_" x="822.328" y="421.463" transform="matrix(0.7071 0.7071 -0.7071 0.7071 553.0488 -472.6724)" style="fill:#FFBF73;" width="49.525" height="19.58"/>
<rect id="XMLID_140_" x="822.328" y="421.463" transform="matrix(0.7071 0.7071 -0.7071 0.7071 553.0488 -472.6724)" style="fill:none;stroke:#135677;stroke-width:6;stroke-linecap:round;stroke-linejoin:round;stroke-miterlimit:10;" width="49.525" height="19.58"/>
<line id="XMLID_121_" style="fill:none;stroke:#135677;stroke-width:6;stroke-linecap:round;stroke-linejoin:round;stroke-miterlimit:10;" x1="899.691" y1="490" x2="899.691" y2="697"/>
<line id="XMLID_118_" style="fill:none;stroke:#135677;stroke-width:6;stroke-linecap:round;stroke-linejoin:round;stroke-miterlimit:10;" x1="944.946" y1="445.058" x2="899.691" y2="490.312"/>
<rect id="XMLID_101_" x="914.839" y="469.463" transform="matrix(-0.7071 0.7071 -0.7071 -0.7071 1942.8821 153.7374)" style="fill:#FFBF73;" width="49.525" height="19.58"/>
<rect id="XMLID_117_" x="914.839" y="469.463" transform="matrix(-0.7071 0.7071 -0.7071 -0.7071 1942.8821 153.7374)" style="fill:none;stroke:#135677;stroke-width:6;stroke-linecap:round;stroke-linejoin:round;stroke-miterlimit:10;" width="49.525" height="19.58"/>
<g id="XMLID_124_">
	
		<line id="XMLID_125_" style="fill:none;stroke:#CCE1EA;stroke-width:4;stroke-linecap:round;stroke-linejoin:round;stroke-miterlimit:10;" x1="500" y1="154.594" x2="500" y2="177.737"/>
	
		<line id="XMLID_126_" style="fill:none;stroke:#CCE1EA;stroke-width:4;stroke-linecap:round;stroke-linejoin:round;stroke-miterlimit:10;" x1="479.162" y1="158.268" x2="487.078" y2="180.016"/>
	
		<line id="XMLID_127_" style="fill:none;stroke:#CCE1EA;stroke-width:4;stroke-linecap:round;stroke-linejoin:round;stroke-miterlimit:10;" x1="460.838" y1="168.847" x2="475.714" y2="186.577"/>
	
		<line id="XMLID_129_" style="fill:none;stroke:#CCE1EA;stroke-width:4;stroke-linecap:round;stroke-linejoin:round;stroke-miterlimit:10;" x1="447.237" y1="185.056" x2="467.28" y2="196.628"/>
	
		<line id="XMLID_131_" style="fill:none;stroke:#CCE1EA;stroke-width:4;stroke-linecap:round;stroke-linejoin:round;stroke-miterlimit:10;" x1="440" y1="204.94" x2="462.792" y2="208.958"/>
	
		<line id="XMLID_132_" style="fill:none;stroke:#CCE1EA;stroke-width:4;stroke-linecap:round;stroke-linejoin:round;stroke-miterlimit:10;" x1="440" y1="226.099" x2="462.792" y2="222.08"/>
	
		<line id="XMLID_133_" style="fill:none;stroke:#CCE1EA;stroke-width:4;stroke-linecap:round;stroke-linejoin:round;stroke-miterlimit:10;" x1="447.237" y1="245.982" x2="467.28" y2="234.41"/>
	
		<line id="XMLID_135_" style="fill:none;stroke:#CCE1EA;stroke-width:4;stroke-linecap:round;stroke-linejoin:round;stroke-miterlimit:10;" x1="460.838" y1="262.191" x2="475.714" y2="244.462"/>
	
		<line id="XMLID_136_" style="fill:none;stroke:#CCE1EA;stroke-width:4;stroke-linecap:round;stroke-linejoin:round;stroke-miterlimit:10;" x1="479.162" y1="272.771" x2="487.078" y2="251.023"/>
	
		<line id="XMLID_138_" style="fill:none;stroke:#CCE1EA;stroke-width:4;stroke-linecap:round;stroke-linejoin:round;stroke-miterlimit:10;" x1="500" y1="276.445" x2="500" y2="253.301"/>
	
		<line id="XMLID_139_" style="fill:none;stroke:#CCE1EA;stroke-width:4;stroke-linecap:round;stroke-linejoin:round;stroke-miterlimit:10;" x1="520.838" y1="272.771" x2="512.922" y2="251.023"/>
	
		<line id="XMLID_141_" style="fill:none;stroke:#CCE1EA;stroke-width:4;stroke-linecap:round;stroke-linejoin:round;stroke-miterlimit:10;" x1="539.162" y1="262.191" x2="524.286" y2="244.462"/>
	
		<line id="XMLID_142_" style="fill:none;stroke:#CCE1EA;stroke-width:4;stroke-linecap:round;stroke-linejoin:round;stroke-miterlimit:10;" x1="552.763" y1="245.982" x2="532.72" y2="234.41"/>
	
		<line id="XMLID_149_" style="fill:none;stroke:#CCE1EA;stroke-width:4;stroke-linecap:round;stroke-linejoin:round;stroke-miterlimit:10;" x1="560" y1="226.099" x2="537.208" y2="222.08"/>
	
		<line id="XMLID_150_" style="fill:none;stroke:#CCE1EA;stroke-width:4;stroke-linecap:round;stroke-linejoin:round;stroke-miterlimit:10;" x1="560" y1="204.94" x2="537.208" y2="208.958"/>
	
		<line id="XMLID_151_" style="fill:none;stroke:#CCE1EA;stroke-width:4;stroke-linecap:round;stroke-linejoin:round;stroke-miterlimit:10;" x1="552.763" y1="185.056" x2="532.72" y2="196.628"/>
	
		<line id="XMLID_153_" style="fill:none;stroke:#CCE1EA;stroke-width:4;stroke-linecap:round;stroke-linejoin:round;stroke-miterlimit:10;" x1="539.162" y1="168.847" x2="524.286" y2="186.577"/>
	
		<line id="XMLID_159_" style="fill:none;stroke:#CCE1EA;stroke-width:4;stroke-linecap:round;stroke-linejoin:round;stroke-miterlimit:10;" x1="520.838" y1="158.268" x2="512.922" y2="180.016"/>
</g>
<circle id="XMLID_123_" style="fill:#FFBF73;" cx="500" cy="215.519" r="20.838"/>
<path id="XMLID_161_" style="fill:none;stroke:#CCE1EA;stroke-width:4;stroke-linecap:round;stroke-linejoin:round;stroke-miterlimit:10;" d="
	M808.654,163.5c0.059-0.727,0.098-1.461,0.098-2.203c0-14.754-11.96-26.714-26.714-26.714c-5.697,0-10.973,1.789-15.309,4.827
	c-3.202-11.165-13.48-19.338-25.674-19.338c-2.091,0-4.122,0.248-6.074,0.702c-6.738-7.531-16.527-12.274-27.427-12.274
	c-18.718,0-34.16,13.979-36.483,32.064c-0.423-0.026-0.844-0.064-1.273-0.064c-11.486,0-20.797,9.311-20.797,20.797
	c0,0.745,0.043,1.479,0.119,2.203H808.654z"/>
<path id="XMLID_162_" style="fill:none;stroke:#CCE1EA;stroke-width:4;stroke-linecap:round;stroke-linejoin:round;stroke-miterlimit:10;" d="
	M191.216,174.106c-4.519-6.443-12-10.655-20.468-10.655c-1.956,0-3.857,0.232-5.684,0.657c-6.304-7.046-15.463-11.484-25.662-11.484
	c-17.513,0-31.962,13.08-34.136,30.001c-0.396-0.024-0.789-0.06-1.192-0.06c-10.747,0-19.459,8.712-19.459,19.459
	c0,0.697,0.04,1.384,0.111,2.061h101.898"/>
<line id="XMLID_165_" style="fill:none;stroke:#CCE1EA;stroke-width:4;stroke-linecap:round;stroke-linejoin:round;stroke-miterlimit:10;" x1="272.002" y1="212.333" x2="358.074" y2="212.333"/>
<line id="XMLID_168_" style="fill:none;stroke:#CCE1EA;stroke-width:4;stroke-linecap:round;stroke-linejoin:round;stroke-miterlimit:10;" x1="331.178" y1="234.41" x2="352.07" y2="234.41"/>
<line id="XMLID_171_" style="fill:none;stroke:#CCE1EA;stroke-width:4;stroke-linecap:round;stroke-linejoin:round;stroke-miterlimit:10;" x1="307.27" y1="222.08" x2="345.936" y2="222.08"/>
<line id="XMLID_188_" style="fill:none;stroke:#CCE1EA;stroke-width:4;stroke-linecap:round;stroke-linejoin:round;stroke-miterlimit:10;" x1="527.446" y1="93" x2="592.554" y2="93"/>
<line id="XMLID_191_" style="fill:none;stroke:#CCE1EA;stroke-width:4;stroke-linecap:round;stroke-linejoin:round;stroke-miterlimit:10;" x1="562.658" y1="108.5" x2="639.976" y2="108.5"/>
<path id="XMLID_194_" style="fill:none;stroke:#CCE1EA;stroke-width:4;stroke-linecap:round;stroke-linejoin:round;stroke-miterlimit:10;" d="
	M257.078,204.085c0.921-2.096,1.445-4.412,1.445-6.856c0-9.303-7.422-16.844-16.577-16.844c-2.296,0-4.482,0.475-6.471,1.333
	c-3.652-9.9-13.17-16.959-24.338-16.959c-13.266,0-24.198,9.962-25.74,22.812c-1.074-0.235-2.187-0.37-3.334-0.37
	c-8.354,0-15.126,6.587-15.126,14.713c0,0.74,0.074,1.461,0.183,2.172H257.078z"/>
</svg>
